<?xml version="1.0" encoding="UTF-8"?>
<svg version="1.1" viewBox="0 0 515.12 440.8" xml:space="preserve" xmlns="http://www.w3.org/2000/svg"><g transform="translate(5141.1 1803.9)">
<path d="m-4883.9-1803.9a18.9 18.9 0 0 0-9.4218 2.4961l-138.05 79.025a18.9 18.9 0 0 0-8.0683 11.049 18.9 18.9 0 0 0-4.7969 11.738l0.252 160.64a18.9 18.9 0 0 0 9.4492 16.336l139.39 80.477a18.9 18.9 0 0 0 13.748 1.3789 18.9 18.9 0 0 0 11.244-2.0489l137.92-79.631a18.9 18.9 0 0 0 9.4492-16.367v-158.16a18.9 18.9 0 0 0-3.33-10.232 18.9 18.9 0 0 0-9.2403-13.834l-139.14-80.332a18.9 18.9 0 0 0-9.4141-2.5313zm-0.074 40.695 101.27 58.467-99.279 56.852-101.9-58.121zm-122.42 96.346 101.8 58.771v116.85l-101.61-58.668zm245.82 2.1679v114.97l-100.13 57.811v-116.58zm86.783 18.533a18.898 18.898 0 0 0-8.9043 4.0489 18.898 18.898 0 0 0-2.5859 26.6c22.988 27.937 26.949 54.779 16.713 81.68-10.236 26.901-37.045 54.603-81.168 75.625-28.781 13.712-62.118 23.276-97.139 28.35a18.898 18.898 0 0 0-15.992 21.412 18.898 18.898 0 0 0 21.412 15.992c38.299-5.5488 75.152-15.995 107.97-31.633 50.32-23.974 85.406-57.331 100.24-96.305 14.83-38.974 7.031-82.821-22.852-119.14a18.898 18.898 0 0 0-17.695-6.6328zm-423.15 2.4473a18.898 18.898 0 0 0-17.453 7.248c-28.32 36.978-34 81.114-17.432 119.64 16.568 38.531 52.981 71.132 104.29 94.238 17.19 7.7405 35.455 13.964 54.309 18.988-4.6914 2.9683-8.3985 5.2032-8.3985 5.2032a18.9 18.9 0 0 0 17.59 33.428l65.195-31.527a18.9 18.9 0 0 0 2.3945-32.645l-59.756-40.598-0.1465-0.1a18.9 18.9 0 0 0-26.891 23.818c-9.9218-3.3007-19.608-6.8996-28.779-11.029-45.2-20.353-73.518-47.794-85.092-74.709-11.574-26.915-8.8054-53.631 12.717-81.732a18.898 18.898 0 0 0-3.5118-26.492 18.898 18.898 0 0 0-9.041-3.7363z"
 color="#000000" stroke-linecap="round" stroke-linejoin="round" style="-inkscape-stroke:none"/></g></svg>
