<?xml version="1.0" encoding="UTF-8"?>
<svg version="1.1" viewBox="0 0 492.56 512" xml:space="preserve" xmlns="http://www.w3.org/2000/svg"><g transform="translate(4530.3 1880)">
<path d="m-4283.7-1880c-41.144 0.1497-77.326 11.389-103.09 35.496-18.917 17.701-30.963 41.674-36.064 69.404-49.774 3.8482-85.993 46.425-89.912 94.908l-17.209 212.87c-4.501 55.675 43.695 99.32 97.223 99.32h297.57c53.518 0 101.27-43.642 97.238-99.119l-15.488-212.87c-3.4257-47.082-37.666-88.347-84.861-94.584-5.4251-29.768-19.334-55.043-40.434-72.734-27.307-22.896-64.114-32.84-104.97-32.691zm0.1816 50.049c32.61-0.1186 56.985 7.8757 72.631 20.994 9.9847 8.3717 17.347 19.009 21.451 33.478h-182.26c3.865-13.827 10.414-24.346 19.108-32.48 14.4-13.475 36.75-21.875 69.072-21.992zm-92.564 104.52h189.99c-0.077 4.5539-0.096 4.8075-0.1719 10.074-0.2444 16.835-0.524 33.609-0.1621 42.125a25.025 25.025 0 0 0 26.064 23.939 25.025 25.025 0 0 0 23.94-26.064c-0.1272-2.9929-0.041-22.602 0.2012-39.274 0.063-4.3458 0.078-4.4153 0.1425-8.3242 18.57 6.0527 31.048 23.496 32.729 46.594l15.488 212.87c1.7752 24.398-20.752 45.439-47.32 45.439h-297.57c-26.558 0-49.288-21.088-47.336-45.238l17.209-212.87c2.0144-24.917 15.966-43.312 36.699-48.012l-1.209 49.264a25.025 25.025 0 0 0 24.404 25.631 25.025 25.025 0 0 0 25.631-24.402z" 
color="#000000" style="-inkscape-stroke:none"/></g></svg>
