<?xml version="1.0" encoding="UTF-8"?>
<svg version="1.1" viewBox="0 0 512 512" xml:space="preserve" xmlns="http://www.w3.org/2000/svg"><g transform="translate(3936 1869.9)">
<path d="m-3765.9-1869.9c-94.224 0-170.08 75.856-170.08 170.08v171.84c0 94.224 75.855 170.08 170.08 170.08h171.84c94.224 0 170.08-75.855 170.08-170.08v-171.84c0-94.224-75.857-170.08-170.08-170.08zm-20.385 135.77h212.62c34.746 0 63.189 28.444 63.189 63.19v114.08c0 34.746-28.443 63.19-63.189 63.19h-212.62c-34.746 0-63.191-28.444-63.191-63.19v-114.08c0-34.746 28.445-63.19 63.191-63.19zm0 30.236c-12.357 0-22.778 6.5044-28.424 16.283 9.9501 6.9926 31.862 22.301 60.203 40.846 17.939 11.738 36.563 23.457 51.744 32.047 7.5905 4.2952 14.346 7.8092 19.432 10.074 2.5027 1.1147 4.8111 1.7857 6.25 2.1953 1.2459-0.3543 3.236-0.8785 5.334-1.916 4.5709-2.2606 10.84-5.7853 17.975-10.078 14.27-8.5855 32.128-20.269 49.469-31.969 27.796-18.754 49.714-34.32 59.141-41.043-5.6232-9.8652-16.086-16.44-28.508-16.44zm-32.955 49.982v97.047c0 10.211 4.4869 19.068 11.529 25.061l68.904-69.232c-10.587-6.4995-21.451-13.357-32.254-20.426-18.052-11.812-35.28-23.547-48.18-32.449zm278.52 0.3613c-12.579 8.8426-29.302 20.481-46.676 32.203-11.691 7.8877-23.284 15.448-34.406 22.523l68.006 68.289c7.9522-5.9548 13.076-15.382 13.076-26.33zm-171.14 68.301-61.045 61.338h183.04l-58.617-58.861c-3.2812 1.8378-6.9959 4.0974-9.8555 5.5117-5.849 2.8926-8.8173 5.6153-17.938 5.6153-8.1008 0-12.81-2.4632-19.352-5.377-4.9083-2.1862-10.429-5.0629-16.23-8.2265z" 
stop-color="#000000"/></g></svg>
