<?xml version="1.0" encoding="UTF-8"?>
<svg version="1.1" viewBox="0 0 512 512" xml:space="preserve" xmlns="http://www.w3.org/2000/svg"><g transform="translate(1154.4 1890.9)">
<path d="m-984.33-1890.9c-94.224 0-170.08 75.855-170.08 170.08v171.84c0 94.224 75.854 170.08 170.08 170.08h171.84c94.224 0 170.08-75.855 170.08-170.08v-171.84c0-94.224-75.855-170.08-170.08-170.08zm122.69 106c13.722-0.039 27.425 0.6667 41.068 2.0605v47.703h-28.033c-22.183 0-26.502 10.482-26.502 25.951v34.06h53.004l-6.8906 53.494h-46.426v136.73h-54.83v-136.65h-45.994v-53.494h45.994v-39.359c0-45.622 27.895-70.494 68.609-70.494z" 
stop-color="#000000"/></g></svg>
