<?xml version="1.0" encoding="UTF-8"?>
<svg version="1.1" viewBox="0 0 512 299.05" xml:space="preserve" xmlns="http://www.w3.org/2000/svg"><g transform="translate(5688.8 1748.7)"><g transform="matrix(1.3261 0 0 1.3261 -184.23 -880.66)">
<path d="m-4014.4-457.39h112.91m-170.62-84.408h228.33m-278.87-84.408h329.4" 
color="#000000"/>
<path d="m-4122.6-654.55a28.346 28.346 0 0 0-28.346 28.348 28.346 28.346 0 0 0 28.346 28.346h329.4a28.346 28.346 0 0 0 28.348-28.346 28.346 28.346 0 0 0-28.348-28.348zm50.537 84.408a28.346 28.346 0 0 0-28.346 28.348 28.346 28.346 0 0 0 28.346 28.346h228.33a28.346 28.346 0 0 0 28.346-28.346 28.346 28.346 0 0 0-28.346-28.348zm57.707 84.408a28.346 28.346 0 0 0-28.346 28.348 28.346 28.346 0 0 0 28.346 28.346h112.91a28.346 28.346 0 0 0 28.348-28.346 28.346 28.346 0 0 0-28.348-28.348z" 
color="#000000"/></g></g></svg>
