<?xml version="1.0" encoding="UTF-8"?>
<svg version="1.1" viewBox="0 0 512 512" xml:space="preserve" xmlns="http://www.w3.org/2000/svg"><g transform="translate(3381.7 1878.5)">
<path d="m-3211.7-1878.5c-94.224 0-170.08 75.857-170.08 170.08v171.84c0 94.224 75.857 170.08 170.08 170.08h171.84c94.224 0 170.08-75.855 170.08-170.08v-171.84c0-94.224-75.855-170.08-170.08-170.08zm85.92 96c43.454 0 48.904 0.1842 65.969 0.9629 17.031 0.7774 28.66 3.482 38.838 7.4375 10.521 4.0889 19.445 9.5602 28.34 18.455 8.895 8.8949 14.364 17.818 18.453 28.34 3.9556 10.178 6.6599 21.807 7.4375 38.838 0.7787 17.065 0.9629 22.513 0.9629 65.967 0 43.454-0.1842 48.904-0.9629 65.969-0.7776 17.031-3.4819 28.66-7.4375 38.838-4.0888 10.521-9.5581 19.445-18.453 28.34-8.8947 8.8948-17.818 14.366-28.34 18.455-10.178 3.9555-21.807 6.6602-38.838 7.4375-17.065 0.7787-22.515 0.9609-65.969 0.9609-43.454 0-48.901-0.1822-65.967-0.9609-17.031-0.7773-28.662-3.482-38.84-7.4375-10.522-4.0889-19.443-9.5603-28.338-18.455-8.8949-8.8949-14.366-17.819-18.455-28.34-3.9554-10.178-6.6601-21.807-7.4375-38.838-0.7785-17.065-0.9629-22.515-0.9629-65.969 0-43.454 0.1844-48.902 0.9629-65.967 0.7774-17.031 3.4821-28.66 7.4375-38.838 4.0889-10.521 9.5602-19.445 18.455-28.34 8.895-8.8949 17.816-14.366 28.338-18.455 10.178-3.9555 21.809-6.6601 38.84-7.4375 17.066-0.7787 22.513-0.9629 65.967-0.9629zm0 28.83c-42.722 0-47.782 0.162-64.654 0.9317-15.599 0.712-24.071 3.3192-29.709 5.5097-7.4683 2.9025-12.798 6.3702-18.396 11.969-5.5986 5.5985-9.0667 10.929-11.969 18.396-2.1911 5.6386-4.798 14.111-5.5098 29.711-0.7697 16.871-0.9316 21.93-0.9316 64.652 0 42.722 0.1619 47.782 0.9316 64.654 0.7118 15.599 3.3187 24.072 5.5098 29.711 2.902 7.4678 6.3701 12.798 11.969 18.396 5.5985 5.5986 10.928 9.0669 18.396 11.969 5.6381 2.1912 14.111 4.7978 29.711 5.5098 16.869 0.7698 21.928 0.9316 64.652 0.9316s47.786-0.1618 64.654-0.9316c15.6-0.712 24.07-3.3186 29.709-5.5098 7.4678-2.9018 12.8-6.3701 18.398-11.969 5.5986-5.5985 9.0649-10.929 11.967-18.396 2.1913-5.6386 4.7978-14.111 5.5098-29.711 0.7698-16.871 0.9336-21.932 0.9336-64.654 0-42.722-0.1639-47.78-0.9336-64.652-0.712-15.599-3.3185-24.072-5.5098-29.711-2.9019-7.4678-6.3682-12.798-11.967-18.396-5.5987-5.5986-10.931-9.0663-18.398-11.969-5.6385-2.1905-14.109-4.7977-29.709-5.5097-16.872-0.7698-21.932-0.9317-64.654-0.9317zm85.408 26.562c10.604 0 19.201 8.5952 19.201 19.199s-8.5972 19.201-19.201 19.201c-10.604 0-19.199-8.5972-19.199-19.201s8.5953-19.199 19.199-19.199zm-85.408 22.445c45.377 0 82.162 36.785 82.162 82.162 0 45.377-36.785 82.164-82.162 82.164-45.377 0-82.162-36.787-82.162-82.164 0-45.377 36.785-82.162 82.162-82.162zm0 28.83c-29.455 0-53.334 23.877-53.334 53.332 0 29.455 23.879 53.334 53.334 53.334 29.455 0 53.334-23.879 53.334-53.334 0-29.455-23.879-53.332-53.334-53.332z" 
stop-color="#000000"/></g></svg>
