<?xml version="1.0" encoding="UTF-8"?>
<svg version="1.1" viewBox="0 0 512 512" xml:space="preserve" xmlns="http://www.w3.org/2000/svg"><g transform="translate(1712.9 1899)">
<path d="m-1542.8-1899c-94.224 0-170.08 75.854-170.08 170.08v171.84c0 94.224 75.855 170.08 170.08 170.08h171.84c94.224 0 170.08-75.855 170.08-170.08v-171.84c0-94.224-75.855-170.08-170.08-170.08zm-31.936 111.36c19.286 0 31.393 11.463 32.143 26.463 0 15-12 27.107-32.143 27.107-19.286 0-32.143-12.108-32.143-27.107 0-15 12.857-26.463 32.143-26.463zm-32.143 85.713h64.285v203.57h-64.285zm96.428 0h64.287v27.43s20.679-27.43 62.25-27.43c42.536 0 77.035 29.25 77.035 88.5v115.07h-64.285v-107.14c0-21.429-10.714-42.857-37.5-43.285h-0.8574c-25.929 0-36.643 22.071-36.643 43.285v107.14h-64.287z" 
stop-color="#000000"/></g></svg>
