<?xml version="1.0" encoding="UTF-8"?>
<svg version="1.1" viewBox="0 0 512 512" xml:space="preserve" xmlns="http://www.w3.org/2000/svg"><g transform="translate(6840.4 1865.3)">
<path d="m-6584.4-1865.3c-141.25 0-256 114.75-256 256 0 141.25 114.75 256 256 256 141.25 0 256-114.75 256-256 0-141.25-114.75-256-256-256zm0 65.867c105.9 0 190.13 84.23 190.13 190.13 0 105.9-84.23 190.13-190.13 190.13-105.9 0-190.13-84.228-190.13-190.13 0-105.9 84.23-190.13 190.13-190.13zm-5.2896-18.828c-123.58 0-223.07 99.486-223.07 223.06 0 123.58 99.488 223.07 223.07 223.07 123.58 0 223.07-99.488 223.07-223.07 0-123.58-99.488-223.06-223.07-223.06zm21.088 27.528c42.032 0 76.106 34.074 76.106 76.106 0 24.676-11.745 46.611-29.852 60.556 7.5379 2.0285 13.667 6.3513 20.112 10.57 10.753 7.0389 17.893 17.789 23.004 25.101 16.656 5.1082 26.207 15.982 32.226 29.417 4.312 13.023 3.4295 20.415 2.0235 34.924 2.6657 6.8536 6.5894 9.1381 7.9987 25.252 0.9222 10.543-2.6315 23.124-4.9371 31.856-4.0771 15.441-11.682 30.582-13.548 35.361-3.034 7.7691-1.5498 21.238-5.7897 23.647-5.4238 3.0822-31.887 3.9786-33.438 4.1559-2.3603 0.2697-1.7611 3.7718-2.1052 5.109-0.6875 2.6719-3.2004 8.935-8.9007 12.046-5.1687 2.8208-27.149 15.491-60.137 16.751-24.082 0.92-44.089-0.8688-57.52-7.6005-8.6549-4.3382-18.112-12.894-17.965-21.071 0.1238-6.8767 1.4297-15.022-1.4091-21.287-0.6129-1.352-6.7445 2.8969-23.806 8.9894-3.22 1.1489-4.3772 0.3582-5.6978-1.5556-3.8878-6.9014-7.8048-13.478-13.041-31.469 0 0-39.296-7.1563-55.818-25.613-3.1934-11.086-0.7688-25.264 3.9161-38.869-1.3705-12.365 0.5567-20.496 4.8094-30.69 4.865-11.661 14.418-21.447 23.909-33.032 5.3396-12.724 7.5982-26.964 20.266-36.745 12.08-9.3281 28.206-11.984 44.441-11.033 3.7326-1.5399 6.6116-4.806 10.393-6.2203 3.9203-1.4663 9.1507-1.8738 13.312-2.415-15.156-13.957-24.658-33.938-24.658-56.136 0-42.032 34.074-76.106 76.106-76.106zm106.18 192.18-19.924 5.8748-5.337 11.418-10.693-6.6798-19.915 5.8987 11.506 6.9623 6.9691-2.0491 8.0294 5.0392-5.623 12.526-5.2298-3.7236 0.059-0.1073 3.6624-7.3349-14.75 4.3516 2.7196 9.2411 9.4589 6.7445 12.504-3.6794 5.6366-12.526 11.534 7.4524 12.493-3.71 4.2751-10.805-2.7417-9.2343-14.747 4.367 7.0627 4.1645 0.1073 0.059-2.3673 5.9684-11.527-7.4559 3.9993-8.5961 6.964-2.0678z" 
color="#000000" stroke-linecap="round" stroke-linejoin="round" stroke-width=".87135" style="-inkscape-stroke:none"/></g></svg>
