<?xml version="1.0" encoding="UTF-8"?>
<svg version="1.1" viewBox="0 0 378.44 512" xml:space="preserve" xmlns="http://www.w3.org/2000/svg"><g transform="matrix(-1 0 0 1 -9268.5 1806.7)"><g transform="matrix(14.08 0 0 14.08 -10207 -1154.8)"><g transform="matrix(.96856 0 0 .96856 39.045 -51.848)"><path d="m27.513 42.273-25.752-17.773 25.752-17.773c-4.6295 5.3561-8.6143 10.991-8.6143 17.265 0 6.7856 4.1164 13.922 8.6143 18.281z"/><path d="m27.863 5.791a1.0001 1.0001 0 0 0-0.91797 0.11328l-25.752 17.773a1.0001 1.0001 0 0 0 0 1.6445l25.752 17.773a1.0001 1.0001 0 0 0 1.2637-1.541c-4.3251-4.1912-8.3105-11.181-8.3105-17.562 0-5.8496 3.7828-11.303 8.3711-16.611a1.0001 1.0001 0 0 0-0.40625-1.5898zm-5.1328 5.4512c-2.7739 3.9394-4.832 8.1256-4.832 12.75 0 4.8082 1.9735 9.586 4.6289 13.625l-19.008-13.117z"/></g></g></g></svg>