<?xml version="1.0" encoding="UTF-8"?>
<svg version="1.1" viewBox="0 0 512 512" xml:space="preserve" xmlns="http://www.w3.org/2000/svg"><g transform="translate(2819.4 1892.8)">
<path d="m-2649.4-1892.8c-94.224 0-170.08 75.855-170.08 170.08v171.84c0 94.224 75.854 170.08 170.08 170.08h171.84c94.224 0 170.08-75.857 170.08-170.08v-171.84c0-94.224-75.855-170.08-170.08-170.08zm88.762 96c86.659 0 157.16 69.978 157.16 155.99 0 86.005-70.5 155.98-157.16 155.97-25.99 0-51.672-6.4086-74.394-18.549l-83.033 26.387c-0.4135 0.1319-0.837 0.1953-1.2578 0.1953-1.0982 0-2.1741-0.4367-2.9668-1.2461-1.0982-1.1179-1.4716-2.7595-0.9688-4.2441l26.994-79.631c-14.104-23.834-21.549-51.066-21.549-78.887 0-86.015 70.508-155.99 157.17-155.99zm0 32.494c-68.646 0-124.49 55.401-124.49 123.5 0 26.174 8.1957 51.204 23.701 72.391 0.8 1.093 1.0163 2.5089 0.582 3.791l-13.428 39.613 41.596-13.221c0.4125-0.1309 0.837-0.1953 1.2598-0.1953 0.8 0 1.5946 0.2298 2.2793 0.6797 20.362 13.361 44.048 20.424 68.504 20.424 68.639 0 124.48-55.394 124.48-123.48 0-68.097-55.843-123.5-124.48-123.5zm-42.539 50.256c4.6244 0 7.9522 2.807 10.471 8.834 1.0472 2.4977 10.898 26.272 11.449 27.375 0.6722 1.3185 2.7517 5.3999 0.3164 10.238l-0.5234 1.0508c-0.9974 2.0218-1.8567 3.7673-3.7891 6.0156-0.6203 0.7169-1.2522 1.4788-1.8828 2.2383-1.332 1.6031-2.7079 3.2584-3.9785 4.5156-0.4343 0.4353-1.2762 1.2796-1.3672 1.6152 0 0 0.019 0.2881 0.3906 0.9219 2.6047 4.4083 21.6 30.549 46.625 41.42 1.093 0.4748 4.7034 1.9609 4.9122 1.9609 0.2328 0 0.6215-0.3877 0.9062-0.7128 2.1797-2.4634 9.2341-10.71 11.564-14.174 2.0613-3.0836 4.7072-4.6523 7.8574-4.6523 1.9283 0 3.7412 0.5934 5.4336 1.2012 4.1455 1.4919 27.474 12.978 28.098 13.277 3.0556 1.467 5.4687 2.6254 6.8692 4.9277 2.0447 3.386 1.2353 12.717-1.8379 21.256-3.9013 10.842-21.053 19.73-28.857 20.422l-1.1446 0.1074c-1.8047 0.1777-3.8503 0.3789-6.4062 0.3789v0c-6.0821 0-16.781-1.044-39.373-10.068-23.467-9.3745-46.616-29.471-65.186-56.59-0.321-0.4696-0.5415-0.798-0.6621-0.959-4.8488-6.3906-16.143-23.194-16.143-40.99 0-19.774 9.4658-31.016 15.061-34.543 5.2759-3.3257 17.207-4.8972 19.398-4.9902 1.7995-0.076 1.3717-0.076 1.8008-0.076z" 
stop-color="#000000" stroke-linecap="round" stroke-linejoin="round" stroke-width="2"/></g></svg>
