<?xml version="1.0" encoding="UTF-8"?>
<svg version="1.1" viewBox="0 0 510.82 510.82" xml:space="preserve" xmlns="http://www.w3.org/2000/svg"><g transform="translate(6254.9 1860.8)">
<g transform="translate(37.2 -34.339)" fill="#fff" stroke="#000" stroke-linecap="round" stroke-linejoin="round" stroke-width="34.016">
<path d="m-6116.2-1809.4h158.93c88.05 0 158.93 70.885 158.93 158.93v158.93c0 88.05-70.885 158.93-158.93 158.93h-158.93c-88.05 0-158.93-70.885-158.93-158.93v-158.93c0-88.05 70.885-158.93 158.93-158.93z" stop-color="#000000"/><path d="m-5924.7-1640c12.114-12.262 11.615-31.661-1.1201-43.33-6.1133-5.6039-14.287-8.6395-22.724-8.4381-8.4375 0.201-16.445 3.623-22.263 9.5122l-64.776 65.814-67.069-65.814c-5.8179-5.8885-13.825-9.3097-22.261-9.5122-8.4375-0.2011-16.613 2.8339-22.726 8.4381-12.73 11.669-13.23 31.068-1.1201 43.33l67.833 68.628-67.833 69.224c-12.114 12.262-11.615 31.662 1.1201 43.331 12.73 11.67 32.873 11.188 44.988-1.074l65.916-66.461 65.928 66.461c12.114 12.262 32.256 12.743 44.986 1.074 12.732-11.669 13.231-31.069 1.1201-43.331l-67.754-68.416z" color="#000000" stroke-width="28.823"/></g></g></svg>
