<?xml version="1.0" encoding="UTF-8" standalone="no"?>
<svg
   viewBox="0 0 300 300"
   version="1.1"
   id="svg4"
   sodipodi:docname="Favicon-Adm.svg"
   inkscape:version="1.2.2 (732a01da63, 2022-12-09)"
   xmlns:inkscape="http://www.inkscape.org/namespaces/inkscape"
   xmlns:sodipodi="http://sodipodi.sourceforge.net/DTD/sodipodi-0.dtd"
   xmlns="http://www.w3.org/2000/svg"
   xmlns:svg="http://www.w3.org/2000/svg">
  <defs
     id="defs8" />
  <sodipodi:namedview
     id="namedview6"
     pagecolor="#ffffff"
     bordercolor="#000000"
     borderopacity="0.25"
     inkscape:showpageshadow="2"
     inkscape:pageopacity="0.0"
     inkscape:pagecheckerboard="0"
     inkscape:deskcolor="#d1d1d1"
     showgrid="false"
     inkscape:zoom="0.64935973"
     inkscape:cx="96.248654"
     inkscape:cy="269.49623"
     inkscape:window-width="1366"
     inkscape:window-height="705"
     inkscape:window-x="-8"
     inkscape:window-y="64"
     inkscape:window-maximized="1"
     inkscape:current-layer="svg4" />
  <path
     fill="#992d2d"
     d="M 112.39949,-5.01e-4 C 50.130491,-5.01e-4 -4.9925e-4,50.129497 -4.9925e-4,112.3995 v 75.201 c 0,62.269 50.12998925,112.4 112.39998925,112.4 h 75.20101 c 62.269,0 112.4,-50.13 112.4,-112.4 v -75.201 c 0,-62.269003 -50.13,-112.400001 -112.4,-112.400001 z"
     id="path1"
     style="fill:#d9dbda;fill-opacity:1" />
  <path
     fill="#D9DBDA"
     d="m 118.45917,83.685718 31.55228,35.610852 31.53116,-35.610852 78.39433,0.04564 -34.19698,37.506972 -27.41742,0.0362 -23.6733,26.83193 33.74642,39.31627 14.94952,-19.07029 -0.32631,-0.3263 -21.10721,-22.63137 58.04394,-0.0309 0.0444,36.35827 -27.02435,34.52904 -49.18875,0.0631 -33.76989,-39.31157 -33.80391,39.31157 -49.188741,-0.0631 -27.024358,-34.52904 0.04294,-36.35827 58.046287,0.0309 -21.107209,22.63137 -0.326306,0.3263 14.948345,19.07029 33.747602,-39.31627 -23.6733,-26.83193 -27.417433,-0.0362 -34.19703,-37.506968 z"
     id="path2"
     style="fill:#992d2d;fill-opacity:1;stroke-width:1.17334" />
</svg>
