<?xml version="1.0" encoding="UTF-8"?>
<svg version="1.1" viewBox="0 0 277.49 162.24" xml:space="preserve" xmlns="http://www.w3.org/2000/svg"><g transform="translate(-3391.3 -418.88)"><g transform="matrix(1.428 0 0 1.428 1469.5 -183.57)" 
stroke-linecap="round" stroke-linejoin="round" stroke-width="2.3584">
<g aria-label="gain"><path d="m1439.4 524.32q0 2.0532-0.521 3.6773-0.521 1.6548-1.379 2.8806-0.8581 1.2564-1.9919 2.1145-1.1339 0.88869-2.3903 1.4403-1.2258 0.5516-2.5128 0.79675-1.2565 0.2758-2.3903 0.2758h-14.372v-7.9676h14.372q1.6242 0 2.4209-0.82741 0.7968-0.8274 0.7968-2.3903v-25.159q0-1.5629-0.7968-2.3596-0.7967-0.8274-2.4209-0.8274h-14.372q-1.4709 0-2.329 0.91934-0.858 0.88869-0.858 2.2677v10.787q0 1.5629 0.8274 2.3903t2.4209 0.8274h14.311v7.9676h-14.372q-1.1338 0-2.3903-0.24516-1.2564-0.2758-2.5128-0.8274-1.2258-0.5516-2.3596-1.4096-1.1339-0.88869-1.9919-2.1145-0.8581-1.2564-1.379-2.8806-0.521-1.6548-0.521-3.708v-10.787q0-1.1338 0.2452-2.3903 0.2758-1.2564 0.8274-2.4822 0.5516-1.2564 1.4096-2.3903 0.8887-1.1338 2.1145-1.9919 1.2564-0.85804 2.8806-1.379 1.6241-0.52096 3.6773-0.52096h14.372q1.1338 0 2.3903 0.2758 1.287 0.24516 2.5128 0.79676 1.2564 0.5516 2.3903 1.4403 1.1338 0.85805 1.9919 2.1145 0.858 1.2258 1.379 2.8499t0.521 3.6773z"/><path d="m1480.9 510.16q0 1.6548-0.5822 3.5854-0.5822 1.9-1.9 3.5548-1.287 1.6242-3.4015 2.7274-2.0838 1.1032-5.087 1.1032h-14.372q-1.6548 0-3.5854-0.58225-1.9-0.58224-3.5548-1.8693-1.6241-1.3177-2.7273-3.4016-1.1032-2.1145-1.1032-5.1176 0-1.6548 0.5822-3.5854 0.5823-1.9306 1.8693-3.5548 1.3178-1.6548 3.4016-2.758 2.1145-1.1032 5.1176-1.1032h14.372v7.5998h-14.372q-1.6241 0-2.5128 1.0113-0.8887 0.98063-0.8887 2.4516 0 1.5629 1.0112 2.4516 1.042 0.85805 2.4516 0.85805h14.311q1.6242 0 2.5129-0.98063 0.8886-0.98062 0.8886-2.4516v-11.124q0-1.5629-0.9806-2.4822-0.95-0.91934-2.4209-0.91934h-17.498v-7.5692h17.498q1.6548 0 3.5548 0.58225 1.9306 0.58224 3.5547 1.9 1.6548 1.2871 2.758 3.4015 1.1032 2.0838 1.1032 5.087z"/><path d="m1495.8 481.2h-7.9676v-7.2015h7.9676zm0 39.93h-7.9676v-33.127h7.9676z"/><path d="m1540.1 521.13h-7.9676v-18.387q0-1.5629-0.5516-2.7886-0.5209-1.2564-1.4403-2.1451-0.9193-0.88869-2.1757-1.3484-1.2258-0.49031-2.6661-0.49031h-13.943v25.159h-7.9676v-29.174q0-0.82741 0.3064-1.5322 0.3065-0.73547 0.8581-1.2564 0.5516-0.5516 1.287-0.85804 0.7355-0.30645 1.5629-0.30645h17.958q1.5016 0 3.1564 0.33709 1.6854 0.33709 3.3096 1.1032 1.6548 0.73547 3.1257 1.9 1.5016 1.1338 2.6355 2.7886 1.1645 1.6242 1.8386 3.7693 0.6742 2.1451 0.6742 4.8418z"/></g><path d="m1387.2 488.19-14.311 15.629 16.119 17.498h-10.971l-10.603-11.553-10.603 11.553h-11.001l16.088-17.559-14.25-15.567h10.91l8.795 9.5917 8.8562-9.5917z"/></g><path d="m3512.8 486.39-25.036-0.0316-13.755-17.575 0.022-18.505 29.544 0.0152-10.744 11.519-0.1659 0.16657 7.6082 9.7054 17.177-20.011-12.048-13.657-13.955-0.0186-17.406-19.09 39.9-0.0232 16.06 18.125 16.049-18.125 39.9 0.0232-17.406 19.09-13.955 0.0186-12.049 13.657 17.177 20.011 7.6083-9.7054-0.1659-0.16657-10.744-11.519 29.544-0.0152 0.022 18.505-13.755 17.575-25.036 0.0316-17.188-20.008z" 
style="font-variation-settings:'wght' 400"/></g></svg>
