<?xml version="1.0" encoding="UTF-8"?>
<svg version="1.1" viewBox="0 0 455.92 90.954" xml:space="preserve" xmlns="http://www.w3.org/2000/svg"><g transform="translate(-2277.3 -454.52)"><g transform="matrix(1.428 0 0 1.428 533.94 -220.78)" 
stroke-linecap="round" stroke-linejoin="round" stroke-width="2.3584">
<g aria-label="gain"><path d="m1439.4 524.32q0 2.0532-0.521 3.6773-0.521 1.6548-1.379 2.8806-0.8581 1.2564-1.9919 2.1145-1.1339 0.88869-2.3903 1.4403-1.2258 0.5516-2.5128 0.79675-1.2565 0.2758-2.3903 0.2758h-14.372v-7.9676h14.372q1.6242 0 2.4209-0.82741 0.7968-0.8274 0.7968-2.3903v-25.159q0-1.5629-0.7968-2.3596-0.7967-0.8274-2.4209-0.8274h-14.372q-1.4709 0-2.329 0.91934-0.858 0.88869-0.858 2.2677v10.787q0 1.5629 0.8274 2.3903t2.4209 0.8274h14.311v7.9676h-14.372q-1.1338 0-2.3903-0.24516-1.2564-0.2758-2.5128-0.8274-1.2258-0.5516-2.3596-1.4096-1.1339-0.88869-1.9919-2.1145-0.8581-1.2564-1.379-2.8806-0.521-1.6548-0.521-3.708v-10.787q0-1.1338 0.2452-2.3903 0.2758-1.2564 0.8274-2.4822 0.5516-1.2564 1.4096-2.3903 0.8887-1.1338 2.1145-1.9919 1.2564-0.85804 2.8806-1.379 1.6241-0.52096 3.6773-0.52096h14.372q1.1338 0 2.3903 0.2758 1.287 0.24516 2.5128 0.79676 1.2564 0.5516 2.3903 1.4403 1.1338 0.85805 1.9919 2.1145 0.858 1.2258 1.379 2.8499t0.521 3.6773z"/><path d="m1480.9 510.16q0 1.6548-0.5822 3.5854-0.5822 1.9-1.9 3.5548-1.287 1.6242-3.4015 2.7274-2.0838 1.1032-5.087 1.1032h-14.372q-1.6548 0-3.5854-0.58225-1.9-0.58224-3.5548-1.8693-1.6241-1.3177-2.7273-3.4016-1.1032-2.1145-1.1032-5.1176 0-1.6548 0.5822-3.5854 0.5823-1.9306 1.8693-3.5548 1.3178-1.6548 3.4016-2.758 2.1145-1.1032 5.1176-1.1032h14.372v7.5998h-14.372q-1.6241 0-2.5128 1.0113-0.8887 0.98063-0.8887 2.4516 0 1.5629 1.0112 2.4516 1.042 0.85805 2.4516 0.85805h14.311q1.6242 0 2.5129-0.98063 0.8886-0.98062 0.8886-2.4516v-11.124q0-1.5629-0.9806-2.4822-0.95-0.91934-2.4209-0.91934h-17.498v-7.5692h17.498q1.6548 0 3.5548 0.58225 1.9306 0.58224 3.5547 1.9 1.6548 1.2871 2.758 3.4015 1.1032 2.0838 1.1032 5.087z"/><path d="m1495.8 481.2h-7.9676v-7.2015h7.9676zm0 39.93h-7.9676v-33.127h7.9676z"/><path d="m1540.1 521.13h-7.9676v-18.387q0-1.5629-0.5516-2.7886-0.5209-1.2564-1.4403-2.1451-0.9193-0.88869-2.1757-1.3484-1.2258-0.49031-2.6661-0.49031h-13.943v25.159h-7.9676v-29.174q0-0.82741 0.3064-1.5322 0.3065-0.73547 0.8581-1.2564 0.5516-0.5516 1.287-0.85804 0.7355-0.30645 1.5629-0.30645h17.958q1.5016 0 3.1564 0.33709 1.6854 0.33709 3.3096 1.1032 1.6548 0.73547 3.1257 1.9 1.5016 1.1338 2.6355 2.7886 1.1645 1.6242 1.8386 3.7693 0.6742 2.1451 0.6742 4.8418z"/></g><path d="m1387.2 488.19-14.311 15.629 16.119 17.498h-10.971l-10.603-11.553-10.603 11.553h-11.001l16.088-17.559-14.25-15.567h10.91l8.795 9.5917 8.8562-9.5917z"/></g><path d="m2329.5 545.48-33.732-0.0426-18.533-23.68 0.03-24.933 39.806 0.0204-14.475 15.52-0.2235 0.22443 10.251 13.077 23.143-26.962-16.234-18.4-18.802-0.025-23.451-25.721 53.76-0.0312 21.638 24.421 21.624-24.421 53.76 0.0312-23.451 25.721-18.802 0.025-16.234 18.4 23.143 26.962 10.251-13.077-0.2236-0.22443-14.475-15.52 39.806-0.0204 0.03 24.933-18.533 23.68-33.732 0.0426-23.158-26.958z" 
style="font-variation-settings:'wght' 400"/></g></svg>
